<mxfile host="app.diagrams.net" modified="2020-10-02T15:49:12.587Z" agent="5.0 (Windows NT 10.0; Win64; x64) AppleWebKit/537.36 (KHTML, like Gecko) Chrome/84.0.4147.135 Safari/537.36 OPR/70.0.3728.189" etag="mfkrr8NfklrS5oHBgTMA" version="13.7.7" type="github" pages="2">
  <diagram id="C5RBs43oDa-KdzZeNtuy" name="Page-1">
    <mxGraphModel dx="953" dy="534" grid="1" gridSize="10" guides="1" tooltips="1" connect="1" arrows="0" fold="1" page="1" pageScale="1" pageWidth="827" pageHeight="1169" math="0" shadow="0">
      <root>
        <mxCell id="WIyWlLk6GJQsqaUBKTNV-0" />
        <mxCell id="WIyWlLk6GJQsqaUBKTNV-1" parent="WIyWlLk6GJQsqaUBKTNV-0" />
        <mxCell id="sxhTnpEn1PRu6iW9HYJo-9" value="a" style="text;html=1;align=center;verticalAlign=middle;resizable=0;points=[];autosize=1;" vertex="1" parent="WIyWlLk6GJQsqaUBKTNV-1">
          <mxGeometry x="370" y="222" width="20" height="20" as="geometry" />
        </mxCell>
        <mxCell id="sxhTnpEn1PRu6iW9HYJo-11" value="b" style="text;html=1;align=center;verticalAlign=middle;resizable=0;points=[];autosize=1;" vertex="1" parent="WIyWlLk6GJQsqaUBKTNV-1">
          <mxGeometry x="370" y="242" width="20" height="20" as="geometry" />
        </mxCell>
        <mxCell id="sxhTnpEn1PRu6iW9HYJo-12" value="c" style="text;html=1;align=center;verticalAlign=middle;resizable=0;points=[];autosize=1;" vertex="1" parent="WIyWlLk6GJQsqaUBKTNV-1">
          <mxGeometry x="370" y="268" width="20" height="20" as="geometry" />
        </mxCell>
        <mxCell id="sxhTnpEn1PRu6iW9HYJo-13" value="1" style="text;html=1;align=center;verticalAlign=middle;resizable=0;points=[];autosize=1;" vertex="1" parent="WIyWlLk6GJQsqaUBKTNV-1">
          <mxGeometry x="330" y="268" width="20" height="20" as="geometry" />
        </mxCell>
        <mxCell id="sxhTnpEn1PRu6iW9HYJo-14" style="edgeStyle=orthogonalEdgeStyle;rounded=0;orthogonalLoop=1;jettySize=auto;html=1;exitX=0;exitY=0.5;exitDx=0;exitDy=0;" edge="1" parent="WIyWlLk6GJQsqaUBKTNV-1" source="UCk4jpyQAJzVF1MGtJKG-5" target="sxhTnpEn1PRu6iW9HYJo-23">
          <mxGeometry relative="1" as="geometry">
            <mxPoint x="330" y="239" as="targetPoint" />
          </mxGeometry>
        </mxCell>
        <mxCell id="sxhTnpEn1PRu6iW9HYJo-15" style="edgeStyle=orthogonalEdgeStyle;rounded=0;orthogonalLoop=1;jettySize=auto;html=1;exitX=0;exitY=0.5;exitDx=0;exitDy=0;entryX=1;entryY=0.5;entryDx=0;entryDy=0;" edge="1" parent="WIyWlLk6GJQsqaUBKTNV-1" source="UCk4jpyQAJzVF1MGtJKG-6" target="sxhTnpEn1PRu6iW9HYJo-23">
          <mxGeometry relative="1" as="geometry">
            <mxPoint x="330" y="239" as="targetPoint" />
          </mxGeometry>
        </mxCell>
        <mxCell id="sxhTnpEn1PRu6iW9HYJo-16" style="edgeStyle=orthogonalEdgeStyle;rounded=0;orthogonalLoop=1;jettySize=auto;html=1;exitX=0;exitY=0.5;exitDx=0;exitDy=0;entryX=1;entryY=0.5;entryDx=0;entryDy=0;" edge="1" parent="WIyWlLk6GJQsqaUBKTNV-1" source="UCk4jpyQAJzVF1MGtJKG-20" target="sxhTnpEn1PRu6iW9HYJo-23">
          <mxGeometry relative="1" as="geometry">
            <mxPoint x="330" y="239" as="targetPoint" />
          </mxGeometry>
        </mxCell>
        <mxCell id="sxhTnpEn1PRu6iW9HYJo-18" style="edgeStyle=orthogonalEdgeStyle;rounded=0;orthogonalLoop=1;jettySize=auto;html=1;exitX=0;exitY=0.5;exitDx=0;exitDy=0;entryX=1;entryY=0.5;entryDx=0;entryDy=0;" edge="1" parent="WIyWlLk6GJQsqaUBKTNV-1" source="UCk4jpyQAJzVF1MGtJKG-17" target="UCk4jpyQAJzVF1MGtJKG-5">
          <mxGeometry relative="1" as="geometry" />
        </mxCell>
        <mxCell id="sxhTnpEn1PRu6iW9HYJo-30" style="edgeStyle=orthogonalEdgeStyle;rounded=0;orthogonalLoop=1;jettySize=auto;html=1;exitX=1;exitY=0.5;exitDx=0;exitDy=0;entryX=0;entryY=0.5;entryDx=0;entryDy=0;" edge="1" parent="WIyWlLk6GJQsqaUBKTNV-1" source="sxhTnpEn1PRu6iW9HYJo-24" target="UCk4jpyQAJzVF1MGtJKG-21">
          <mxGeometry relative="1" as="geometry" />
        </mxCell>
        <mxCell id="sxhTnpEn1PRu6iW9HYJo-31" style="edgeStyle=orthogonalEdgeStyle;rounded=0;orthogonalLoop=1;jettySize=auto;html=1;exitX=1;exitY=0.5;exitDx=0;exitDy=0;entryX=0;entryY=0.5;entryDx=0;entryDy=0;" edge="1" parent="WIyWlLk6GJQsqaUBKTNV-1" source="sxhTnpEn1PRu6iW9HYJo-25" target="UCk4jpyQAJzVF1MGtJKG-11">
          <mxGeometry relative="1" as="geometry" />
        </mxCell>
        <mxCell id="sxhTnpEn1PRu6iW9HYJo-32" value="d" style="text;html=1;align=center;verticalAlign=middle;resizable=0;points=[];autosize=1;" vertex="1" parent="WIyWlLk6GJQsqaUBKTNV-1">
          <mxGeometry x="370" y="300" width="20" height="20" as="geometry" />
        </mxCell>
        <mxCell id="sxhTnpEn1PRu6iW9HYJo-33" value="e" style="text;html=1;align=center;verticalAlign=middle;resizable=0;points=[];autosize=1;" vertex="1" parent="WIyWlLk6GJQsqaUBKTNV-1">
          <mxGeometry x="370" y="320" width="20" height="20" as="geometry" />
        </mxCell>
        <mxCell id="UCk4jpyQAJzVF1MGtJKG-13" value="items/item" style="swimlane;fontStyle=0;childLayout=stackLayout;horizontal=1;startSize=26;fillColor=#f0a30a;horizontalStack=0;resizeParent=1;resizeParentMax=0;resizeLast=0;collapsible=1;marginBottom=0;strokeColor=#BD7000;fontColor=#ffffff;" vertex="1" parent="WIyWlLk6GJQsqaUBKTNV-1">
          <mxGeometry x="600" y="200" width="140" height="130" as="geometry" />
        </mxCell>
        <mxCell id="UCk4jpyQAJzVF1MGtJKG-17" value="Foto" style="text;strokeColor=#b46504;fillColor=#fad7ac;align=left;verticalAlign=top;spacingLeft=4;spacingRight=4;overflow=hidden;rotatable=0;points=[[0,0.5],[1,0.5]];portConstraint=eastwest;" vertex="1" parent="UCk4jpyQAJzVF1MGtJKG-13">
          <mxGeometry y="26" width="140" height="26" as="geometry" />
        </mxCell>
        <mxCell id="UCk4jpyQAJzVF1MGtJKG-14" value="Titulo" style="text;strokeColor=#b46504;fillColor=#fad7ac;align=left;verticalAlign=top;spacingLeft=4;spacingRight=4;overflow=hidden;rotatable=0;points=[[0,0.5],[1,0.5]];portConstraint=eastwest;" vertex="1" parent="UCk4jpyQAJzVF1MGtJKG-13">
          <mxGeometry y="52" width="140" height="26" as="geometry" />
        </mxCell>
        <mxCell id="UCk4jpyQAJzVF1MGtJKG-15" value="Cantidad" style="text;strokeColor=#b46504;fillColor=#fad7ac;align=left;verticalAlign=top;spacingLeft=4;spacingRight=4;overflow=hidden;rotatable=0;points=[[0,0.5],[1,0.5]];portConstraint=eastwest;" vertex="1" parent="UCk4jpyQAJzVF1MGtJKG-13">
          <mxGeometry y="78" width="140" height="26" as="geometry" />
        </mxCell>
        <mxCell id="UCk4jpyQAJzVF1MGtJKG-16" value="Precio" style="text;strokeColor=#b46504;fillColor=#fad7ac;align=left;verticalAlign=top;spacingLeft=4;spacingRight=4;overflow=hidden;rotatable=0;points=[[0,0.5],[1,0.5]];portConstraint=eastwest;" vertex="1" parent="UCk4jpyQAJzVF1MGtJKG-13">
          <mxGeometry y="104" width="140" height="26" as="geometry" />
        </mxCell>
        <mxCell id="sxhTnpEn1PRu6iW9HYJo-22" value="Front" style="swimlane;fontStyle=0;childLayout=stackLayout;horizontal=1;startSize=26;fillColor=#76608a;horizontalStack=0;resizeParent=1;resizeParentMax=0;resizeLast=0;collapsible=1;marginBottom=0;strokeColor=#432D57;fontColor=#ffffff;" vertex="1" parent="WIyWlLk6GJQsqaUBKTNV-1">
          <mxGeometry x="180" y="252" width="140" height="104" as="geometry" />
        </mxCell>
        <mxCell id="sxhTnpEn1PRu6iW9HYJo-23" value="Pagina Principal" style="text;strokeColor=#56517e;fillColor=#d0cee2;align=left;verticalAlign=top;spacingLeft=4;spacingRight=4;overflow=hidden;rotatable=0;points=[[0,0.5],[1,0.5]];portConstraint=eastwest;" vertex="1" parent="sxhTnpEn1PRu6iW9HYJo-22">
          <mxGeometry y="26" width="140" height="26" as="geometry" />
        </mxCell>
        <mxCell id="sxhTnpEn1PRu6iW9HYJo-24" value="Responder Preguntas" style="text;strokeColor=#56517e;fillColor=#d0cee2;align=left;verticalAlign=top;spacingLeft=4;spacingRight=4;overflow=hidden;rotatable=0;points=[[0,0.5],[1,0.5]];portConstraint=eastwest;" vertex="1" parent="sxhTnpEn1PRu6iW9HYJo-22">
          <mxGeometry y="52" width="140" height="26" as="geometry" />
        </mxCell>
        <mxCell id="sxhTnpEn1PRu6iW9HYJo-25" value="Publicar Item" style="text;strokeColor=#56517e;fillColor=#d0cee2;align=left;verticalAlign=top;spacingLeft=4;spacingRight=4;overflow=hidden;rotatable=0;points=[[0,0.5],[1,0.5]];portConstraint=eastwest;" vertex="1" parent="sxhTnpEn1PRu6iW9HYJo-22">
          <mxGeometry y="78" width="140" height="26" as="geometry" />
        </mxCell>
        <mxCell id="UCk4jpyQAJzVF1MGtJKG-4" value="API Controller" style="swimlane;fontStyle=0;childLayout=stackLayout;horizontal=1;startSize=26;horizontalStack=0;resizeParent=1;resizeParentMax=0;resizeLast=0;collapsible=1;marginBottom=0;fillColor=#1ba1e2;strokeColor=#006EAF;fontColor=#ffffff;" vertex="1" parent="WIyWlLk6GJQsqaUBKTNV-1">
          <mxGeometry x="400" y="200" width="160" height="156" as="geometry" />
        </mxCell>
        <mxCell id="UCk4jpyQAJzVF1MGtJKG-5" value="/item/list" style="text;strokeColor=#10739e;fillColor=#b1ddf0;align=left;verticalAlign=top;spacingLeft=4;spacingRight=4;overflow=hidden;rotatable=0;points=[[0,0.5],[1,0.5]];portConstraint=eastwest;" vertex="1" parent="UCk4jpyQAJzVF1MGtJKG-4">
          <mxGeometry y="26" width="160" height="26" as="geometry" />
        </mxCell>
        <mxCell id="UCk4jpyQAJzVF1MGtJKG-6" value="/item/sales" style="text;strokeColor=#10739e;fillColor=#b1ddf0;align=left;verticalAlign=top;spacingLeft=4;spacingRight=4;overflow=hidden;rotatable=0;points=[[0,0.5],[1,0.5]];portConstraint=eastwest;" vertex="1" parent="UCk4jpyQAJzVF1MGtJKG-4">
          <mxGeometry y="52" width="160" height="26" as="geometry" />
        </mxCell>
        <mxCell id="UCk4jpyQAJzVF1MGtJKG-20" value="/items/questions" style="text;strokeColor=#10739e;fillColor=#b1ddf0;align=left;verticalAlign=top;spacingLeft=4;spacingRight=4;overflow=hidden;rotatable=0;points=[[0,0.5],[1,0.5]];portConstraint=eastwest;" vertex="1" parent="UCk4jpyQAJzVF1MGtJKG-4">
          <mxGeometry y="78" width="160" height="26" as="geometry" />
        </mxCell>
        <mxCell id="UCk4jpyQAJzVF1MGtJKG-21" value="/items/questions/answer" style="text;strokeColor=#10739e;fillColor=#b1ddf0;align=left;verticalAlign=top;spacingLeft=4;spacingRight=4;overflow=hidden;rotatable=0;points=[[0,0.5],[1,0.5]];portConstraint=eastwest;" vertex="1" parent="UCk4jpyQAJzVF1MGtJKG-4">
          <mxGeometry y="104" width="160" height="26" as="geometry" />
        </mxCell>
        <mxCell id="UCk4jpyQAJzVF1MGtJKG-11" value="/items/add" style="text;strokeColor=#10739e;fillColor=#b1ddf0;align=left;verticalAlign=top;spacingLeft=4;spacingRight=4;overflow=hidden;rotatable=0;points=[[0,0.5],[1,0.5]];portConstraint=eastwest;" vertex="1" parent="UCk4jpyQAJzVF1MGtJKG-4">
          <mxGeometry y="130" width="160" height="26" as="geometry" />
        </mxCell>
      </root>
    </mxGraphModel>
  </diagram>
  <diagram id="8S2bFOUYzF6jkFQfoZmO" name="Page-2">
    <mxGraphModel dx="418" dy="755" grid="1" gridSize="10" guides="1" tooltips="1" connect="1" arrows="1" fold="1" page="1" pageScale="1" pageWidth="827" pageHeight="1169" math="0" shadow="0">
      <root>
        <mxCell id="HByfwEFySUE5myntCGbK-0" />
        <mxCell id="HByfwEFySUE5myntCGbK-1" parent="HByfwEFySUE5myntCGbK-0" />
      </root>
    </mxGraphModel>
  </diagram>
</mxfile>
